<svg width="27" height="26" viewBox="0 0 27 26" fill="none" xmlns="http://www.w3.org/2000/svg">
<path d="M20.2021 12.6644C20.5926 13.0549 20.5926 13.688 20.2021 14.0786L13.8381 20.4425C13.4476 20.8331 12.8144 20.8331 12.4239 20.4425C12.0334 20.052 12.0334 19.4188 12.4239 19.0283L18.0808 13.3715L12.4239 7.71461C12.0334 7.32408 12.0334 6.69092 12.4239 6.30039C12.8144 5.90987 13.4476 5.90987 13.8381 6.30039L20.2021 12.6644ZM6.12354 12.3715L19.495 12.3715L19.495 14.3715L6.12354 14.3715L6.12354 12.3715Z" fill="#00626F"/>
<circle cx="13" cy="13" r="12" transform="matrix(-1 0 0 1 26.1807 0)" stroke="#00626F" stroke-width="2"/>
</svg>